name rise30.8019peak61.5557fall86.2505.mot
datacolumns 19
datarows 17
range 1.66833700000000 1.69499800000000
endheader
time	ground_force1_vx	ground_force1_vy	ground_force1_vz	ground_force1_px	ground_force1_py	ground_force1_pz	ground_force2_vx	ground_force2_vy	ground_force2_vz	ground_force2_px	ground_force2_py	ground_force2_pz	ground_torque1_x	ground_torque1_y	ground_torque1_z	ground_torque2_x	ground_torque2_y	ground_torque2_z	
1.66833700000000	-49.65594800000000	786.85276399999998	47.95768400000000	0.03391100000000	0.00000000000000	0.10444200000000	-8.85568700000000	30.35649200000000	7.57080800000000	0.31742700000000	0.00000000000000	-0.06143700000000	0.00000000000000	14.78649500000000	0.00000000000000	0.00000000000000	3.74044600000000	0.00000000000000	
1.67000600000000	-49.95556800000000	784.60872800000004	47.65799800000000	0.03328500000000	0.00000000000000	0.10438900000000	-10.15461500000000	35.64744300000000	8.72422000000000	0.31905900000000	0.00000000000000	-0.06170400000000	0.00000000000000	14.71110500000000	0.00000000000000	0.00000000000000	4.32760300000000	0.00000000000000	
1.67167500000000	-50.27532000000000	782.30253500000003	47.34045100000000	0.03265700000000	0.00000000000000	0.10433100000000	-11.35906600000000	40.87542100000000	9.80950600000000	0.32063700000000	0.00000000000000	-0.06197400000000	0.00000000000000	14.64029400000000	0.00000000000000	0.00000000000000	4.88528600000000	0.00000000000000	
1.67332900000000	-50.61570700000000	779.93502400000000	47.00538500000000	0.03202800000000	0.00000000000000	0.10426900000000	-12.43444500000000	45.93522700000000	10.79743800000000	0.32216100000000	0.00000000000000	-0.06224800000000	0.00000000000000	14.57420100000000	0.00000000000000	0.00000000000000	5.39861100000000	0.00000000000000	
1.67499800000000	-50.97718200000000	777.50692000000004	46.65316600000000	0.03139800000000	0.00000000000000	0.10420200000000	-13.35482800000000	50.74460900000000	11.66580100000000	0.32363200000000	0.00000000000000	-0.06252500000000	0.00000000000000	14.51295400000000	0.00000000000000	0.00000000000000	5.85603500000000	0.00000000000000	
1.67668400000000	-51.36013900000000	775.01883399999997	46.28417400000000	0.03076500000000	0.00000000000000	0.10413100000000	-14.10389400000000	55.24793300000000	12.40023300000000	0.32504700000000	0.00000000000000	-0.06280700000000	0.00000000000000	14.45666700000000	0.00000000000000	0.00000000000000	6.24983100000000	0.00000000000000	
1.67832800000000	-51.76491600000000	772.47125500000004	45.89881300000000	0.03013000000000	0.00000000000000	0.10405500000000	-14.67494600000000	59.41709800000000	12.99429000000000	0.32640800000000	0.00000000000000	-0.06309400000000	0.00000000000000	14.40544000000000	0.00000000000000	0.00000000000000	6.57617500000000	0.00000000000000	
1.68000000000000	-52.19178800000000	769.86454300000003	45.49749800000000	0.02949200000000	0.00000000000000	0.10397400000000	-15.07013500000000	63.25005900000000	13.44885200000000	0.32771400000000	0.00000000000000	-0.06338500000000	0.00000000000000	14.35935900000000	0.00000000000000	0.00000000000000	6.83491000000000	0.00000000000000	
1.68167100000000	-52.64096700000000	767.19892800000002	45.08066200000000	0.02885100000000	0.00000000000000	0.10388900000000	-15.29908300000000	66.76744300000000	13.77103200000000	0.32896300000000	0.00000000000000	-0.06368200000000	0.00000000000000	14.31849400000000	0.00000000000000	0.00000000000000	7.02903300000000	0.00000000000000	
1.68332800000000	-53.11259500000000	764.47450000000003	44.64875100000000	0.02820700000000	0.00000000000000	0.10379900000000	-15.37713400000000	70.00788900000001	13.97275100000000	0.33015600000000	0.00000000000000	-0.06398300000000	0.00000000000000	14.28289900000000	0.00000000000000	0.00000000000000	7.16402100000000	0.00000000000000	
1.68500800000000	-53.60674900000000	761.69121199999995	44.20222100000000	0.02755800000000	0.00000000000000	0.10370400000000	-15.32342400000000	73.02271399999999	14.06916500000000	0.33129100000000	0.00000000000000	-0.06429000000000	0.00000000000000	14.25261500000000	0.00000000000000	0.00000000000000	7.24706000000000	0.00000000000000	
1.68668500000000	-54.12342800000000	758.84887000000003	43.74154200000000	0.02690600000000	0.00000000000000	0.10360500000000	-15.15898600000000	75.87045500000001	14.07710400000000	0.33236800000000	0.00000000000000	-0.06460100000000	0.00000000000000	14.22766500000000	0.00000000000000	0.00000000000000	7.28626500000000	0.00000000000000	
1.68833000000000	-54.66256000000000	755.94713800000000	43.26718900000000	0.02624800000000	0.00000000000000	0.10350100000000	-14.90500900000000	78.61176399999999	14.01363000000000	0.33338600000000	0.00000000000000	-0.06491800000000	0.00000000000000	14.20805600000000	0.00000000000000	0.00000000000000	7.28995600000000	0.00000000000000	
1.69000900000000	-55.22399400000000	752.98553100000004	42.77964700000000	0.02558500000000	0.00000000000000	0.10339300000000	-14.58138400000000	81.30499600000000	13.89483300000000	0.33434400000000	0.00000000000000	-0.06524000000000	0.00000000000000	14.19377900000000	0.00000000000000	0.00000000000000	7.26604300000000	0.00000000000000	
1.69168700000000	-55.80750000000000	749.96341600000005	42.27940600000000	0.02491700000000	0.00000000000000	0.10328100000000	-14.20559700000000	84.00271200000000	13.73489100000000	0.33524100000000	0.00000000000000	-0.06556700000000	0.00000000000000	14.18480900000000	0.00000000000000	0.00000000000000	7.22154300000000	0.00000000000000	
1.69332700000000	-56.41276700000000	746.88001199999997	41.76696000000000	0.02424300000000	0.00000000000000	0.10316500000000	-13.79198500000000	86.74922200000000	13.54545000000000	0.33607700000000	0.00000000000000	-0.06589800000000	0.00000000000000	14.18110100000000	0.00000000000000	0.00000000000000	7.16225000000000	0.00000000000000	
1.69499800000000	-57.03939700000000	743.73438899999996	41.24280800000000	0.02356200000000	0.00000000000000	0.10304400000000	-13.35136200000000	89.57915199999999	13.33528800000000	0.33685100000000	0.00000000000000	-0.06623400000000	0.00000000000000	14.18259800000000	0.00000000000000	0.00000000000000	7.09254900000000	0.00000000000000	
